<?xml version="1.0" encoding="UTF-8" standalone="no"?>
<!-- Created with Inkscape (http://www.inkscape.org/) -->

<svg
   xmlns:dc="http://purl.org/dc/elements/1.1/"
   xmlns:cc="http://creativecommons.org/ns#"
   xmlns:rdf="http://www.w3.org/1999/02/22-rdf-syntax-ns#"
   xmlns:svg="http://www.w3.org/2000/svg"
   xmlns="http://www.w3.org/2000/svg"
   xmlns:sodipodi="http://sodipodi.sourceforge.net/DTD/sodipodi-0.dtd"
   xmlns:inkscape="http://www.inkscape.org/namespaces/inkscape"
   width="1000"
   height="250"
   viewBox="0 0 264.58332 66.145835"
   version="1.1"
   id="svg1291">
  <defs
     id="defs1285" />
  <sodipodi:namedview
     id="base"
     pagecolor="#ffffff"
     bordercolor="#666666"
     borderopacity="1.0"
     inkscape:pageopacity="0.0"
     inkscape:pageshadow="2"
     inkscape:zoom="0.35"
     inkscape:cx="996.28572"
     inkscape:cy="-674.20459"
     inkscape:document-units="px"
     inkscape:current-layer="layer1"
     showgrid="false"
     units="px"
     fit-margin-top="0"
     fit-margin-left="0"
     fit-margin-right="0"
     fit-margin-bottom="0"
     inkscape:window-width="1920"
     inkscape:window-height="1017"
     inkscape:window-x="1912"
     inkscape:window-y="-6"
     inkscape:window-maximized="1" />
  <metadata
     id="metadata1288">
    <rdf:RDF>
      <cc:Work
         rdf:about="">
        <dc:format>image/svg+xml</dc:format>
        <dc:type
           rdf:resource="http://purl.org/dc/dcmitype/StillImage" />
        <dc:title></dc:title>
      </cc:Work>
    </rdf:RDF>
  </metadata>
  <g
     inkscape:label="Layer 1"
     inkscape:groupmode="layer"
     id="layer1"
     transform="translate(171.37441,202.2851)">
    <g
       class="scaling-icon"
       id="g1917"
       transform="matrix(3.1498015,0,0,3.1498015,-171.37441,-202.2851)"
       style="stroke-width:0.084">
      <g
         class="logo-21dp"
         id="g1915"
         style="stroke-width:0.084">
        <g
           class="dpi-1"
           id="g1913"
           style="stroke-width:0.084">
          <g
             style="fill:none;fill-rule:evenodd;stroke-width:0.084"
             class="inbug"
             id="g1905">
            <path
               style="fill:#ffffff;stroke-width:0.084"
               inkscape:connector-curvature="0"
               d="M 82.479,0 H 64.583 C 63.727,0 63,0.677 63,1.511 V 19.488 C 63,20.323 63.477,21 64.333,21 H 82.229 C 83.086,21 84,20.323 84,19.488 V 1.511 C 84,0.677 83.336,0 82.479,0"
               class="bug-text-color"
               id="path1901" />
            <path
               style="fill:#0a66c2;stroke-width:0.084"
               inkscape:connector-curvature="0"
               d="M 82.479,0 H 64.583 C 63.727,0 63,0.677 63,1.511 V 19.488 C 63,20.323 63.477,21 64.333,21 H 82.229 C 83.086,21 84,20.323 84,19.488 V 1.511 C 84,0.677 83.336,0 82.479,0 Z M 71,8 h 2.827 v 1.441 h 0.031 C 74.289,8.664 75.562,7.875 77.136,7.875 80.157,7.875 81,9.479 81,12.45 V 18 H 78 V 12.997 C 78,11.667 77.469,10.5 76.227,10.5 74.719,10.5 74,11.521 74,13.197 V 18 h -3 z m -5,10 h 3 V 8 H 66 Z M 69.375,4.5 A 1.8745001,1.8745001 0 1 1 65.626,4.501 1.8745001,1.8745001 0 0 1 69.375,4.5 Z"
               class="background"
               id="path1903" />
          </g>
          <g
             style="fill:#0a66c2;stroke-width:0.084"
             class="linkedin-text"
             id="g1911">
            <path
               inkscape:connector-curvature="0"
               d="m 60,18 h -2.8 v -1.191 h -0.03 c -0.623,0.722 -1.705,1.316 -3.539,1.316 -2.5,0 -4.653,-1.881 -4.653,-5.114 0,-3.08 2.122,-5.136 4.747,-5.136 1.625,0 2.634,0.578 3.245,1.316 H 57 V 3 h 3 z m -5.521,-7.875 c -1.715,0 -2.679,1.223 -2.679,2.849 0,1.627 0.964,2.901 2.679,2.901 1.717,0 2.721,-1.241 2.721,-2.901 0,-1.706 -1.004,-2.849 -2.721,-2.849 z m -6.818,6.264 c -0.708,0.917 -2.166,1.736 -4.52,1.736 -3.14,0 -5.14,-2.08 -5.14,-5.347 0,-2.903 1.811,-4.903 5.228,-4.903 2.951,0 4.771,1.938 4.771,5.347 0,0.34 -0.055,0.678 -0.055,0.678 h -7.114 l 0.017,0.309 c 0.197,0.862 0.848,1.916 2.342,1.916 1.304,0 2.198,-0.701 2.602,-1.25 l 1.87,1.514 z m -2.548,-4.39 c 0.02,-1.054 -0.754,-2.124 -1.974,-2.124 -1.452,0 -2.227,1.134 -2.308,2.125 h 4.282 z"
               id="path1907"
               style="stroke-width:0.084" />
            <path
               inkscape:connector-curvature="0"
               d="M 38,8 H 34.5 L 31,12 V 3 h -3 v 15 h 3 v -5 l 3.699,5 h 3.542 L 34,12.533 Z M 16,8 h 2.827 v 1.441 h 0.031 C 19.289,8.664 20.562,7.875 22.136,7.875 25.157,7.875 26,9.792 26,12.45 V 18 H 23 V 12.997 C 23,11.525 22.469,10.5 21.227,10.5 19.719,10.5 19,11.694 19,13.197 V 18 h -3 z m -5,10 h 3 V 8 H 11 Z M 12.501,6.3 a 1.8,1.8 0 1 0 0,-3.599 1.8,1.8 0 0 0 0,3.599 z M 3,3 H 0 V 18 H 9 V 15 H 3 Z"
               id="path1909"
               style="stroke-width:0.084" />
          </g>
        </g>
      </g>
    </g>
  </g>
</svg>